<mxfile host="app.diagrams.net" modified="2023-10-02T22:44:05.702Z" agent="Mozilla/5.0 (Windows NT 10.0; Win64; x64) AppleWebKit/537.36 (KHTML, like Gecko) Chrome/117.0.0.0 Safari/537.36" etag="w97upNDYYH38eqem_t0W" version="22.0.1" type="device">
  <diagram name="Page-1" id="is6LBB5S8CY-tbyJOEMh">
    <mxGraphModel dx="876" dy="450" grid="1" gridSize="10" guides="1" tooltips="1" connect="1" arrows="1" fold="1" page="1" pageScale="1" pageWidth="850" pageHeight="1100" math="0" shadow="0">
      <root>
        <mxCell id="0" />
        <mxCell id="1" parent="0" />
        <mxCell id="Y8AFegA1MB7wXAWUZDhi-1" value="&lt;font style=&quot;font-size: 26px;&quot;&gt;User&lt;/font&gt;" style="rounded=0;whiteSpace=wrap;html=1;" vertex="1" parent="1">
          <mxGeometry x="170" y="230" width="110" height="50" as="geometry" />
        </mxCell>
        <mxCell id="Y8AFegA1MB7wXAWUZDhi-3" value="&lt;font style=&quot;font-size: 26px;&quot;&gt;Contact&lt;/font&gt;" style="rounded=0;whiteSpace=wrap;html=1;" vertex="1" parent="1">
          <mxGeometry x="600" y="230" width="110" height="50" as="geometry" />
        </mxCell>
        <mxCell id="Y8AFegA1MB7wXAWUZDhi-4" value="&lt;u&gt;&lt;b&gt;id&lt;/b&gt;&lt;/u&gt;" style="ellipse;whiteSpace=wrap;html=1;" vertex="1" parent="1">
          <mxGeometry x="20" y="120" width="70" height="40" as="geometry" />
        </mxCell>
        <mxCell id="Y8AFegA1MB7wXAWUZDhi-5" value="Name" style="ellipse;whiteSpace=wrap;html=1;" vertex="1" parent="1">
          <mxGeometry x="70" y="60" width="70" height="40" as="geometry" />
        </mxCell>
        <mxCell id="Y8AFegA1MB7wXAWUZDhi-6" value="Email" style="ellipse;whiteSpace=wrap;html=1;" vertex="1" parent="1">
          <mxGeometry x="150" y="40" width="70" height="40" as="geometry" />
        </mxCell>
        <mxCell id="Y8AFegA1MB7wXAWUZDhi-8" value="password" style="ellipse;whiteSpace=wrap;html=1;" vertex="1" parent="1">
          <mxGeometry x="240" y="40" width="70" height="40" as="geometry" />
        </mxCell>
        <mxCell id="Y8AFegA1MB7wXAWUZDhi-9" value="about" style="ellipse;whiteSpace=wrap;html=1;" vertex="1" parent="1">
          <mxGeometry x="330" y="190" width="70" height="40" as="geometry" />
        </mxCell>
        <mxCell id="Y8AFegA1MB7wXAWUZDhi-10" value="image" style="ellipse;whiteSpace=wrap;html=1;" vertex="1" parent="1">
          <mxGeometry x="310" y="80" width="70" height="40" as="geometry" />
        </mxCell>
        <mxCell id="Y8AFegA1MB7wXAWUZDhi-13" value="role" style="ellipse;whiteSpace=wrap;html=1;" vertex="1" parent="1">
          <mxGeometry x="30" y="190" width="70" height="40" as="geometry" />
        </mxCell>
        <mxCell id="Y8AFegA1MB7wXAWUZDhi-14" value="enable" style="ellipse;whiteSpace=wrap;html=1;" vertex="1" parent="1">
          <mxGeometry x="330" y="139" width="70" height="40" as="geometry" />
        </mxCell>
        <mxCell id="Y8AFegA1MB7wXAWUZDhi-15" value="" style="endArrow=none;html=1;rounded=0;exitX=0.5;exitY=1;exitDx=0;exitDy=0;entryX=0.25;entryY=0;entryDx=0;entryDy=0;" edge="1" parent="1" source="Y8AFegA1MB7wXAWUZDhi-6" target="Y8AFegA1MB7wXAWUZDhi-1">
          <mxGeometry width="50" height="50" relative="1" as="geometry">
            <mxPoint x="400" y="250" as="sourcePoint" />
            <mxPoint x="450" y="200" as="targetPoint" />
          </mxGeometry>
        </mxCell>
        <mxCell id="Y8AFegA1MB7wXAWUZDhi-16" value="" style="endArrow=none;html=1;rounded=0;exitX=0.319;exitY=1.014;exitDx=0;exitDy=0;exitPerimeter=0;entryX=0.363;entryY=0.004;entryDx=0;entryDy=0;entryPerimeter=0;" edge="1" parent="1" source="Y8AFegA1MB7wXAWUZDhi-8" target="Y8AFegA1MB7wXAWUZDhi-1">
          <mxGeometry width="50" height="50" relative="1" as="geometry">
            <mxPoint x="195" y="90" as="sourcePoint" />
            <mxPoint x="220" y="220" as="targetPoint" />
          </mxGeometry>
        </mxCell>
        <mxCell id="Y8AFegA1MB7wXAWUZDhi-17" value="" style="endArrow=none;html=1;rounded=0;exitX=0;exitY=0.5;exitDx=0;exitDy=0;entryX=0.5;entryY=0;entryDx=0;entryDy=0;" edge="1" parent="1" source="Y8AFegA1MB7wXAWUZDhi-10" target="Y8AFegA1MB7wXAWUZDhi-1">
          <mxGeometry width="50" height="50" relative="1" as="geometry">
            <mxPoint x="272" y="91" as="sourcePoint" />
            <mxPoint x="220" y="240" as="targetPoint" />
          </mxGeometry>
        </mxCell>
        <mxCell id="Y8AFegA1MB7wXAWUZDhi-18" value="" style="endArrow=none;html=1;rounded=0;exitX=0;exitY=0.5;exitDx=0;exitDy=0;" edge="1" parent="1" source="Y8AFegA1MB7wXAWUZDhi-14">
          <mxGeometry width="50" height="50" relative="1" as="geometry">
            <mxPoint x="320" y="110" as="sourcePoint" />
            <mxPoint x="250" y="230" as="targetPoint" />
          </mxGeometry>
        </mxCell>
        <mxCell id="Y8AFegA1MB7wXAWUZDhi-19" value="" style="endArrow=none;html=1;rounded=0;exitX=0;exitY=0.5;exitDx=0;exitDy=0;entryX=0.853;entryY=0.004;entryDx=0;entryDy=0;entryPerimeter=0;" edge="1" parent="1" source="Y8AFegA1MB7wXAWUZDhi-9" target="Y8AFegA1MB7wXAWUZDhi-1">
          <mxGeometry width="50" height="50" relative="1" as="geometry">
            <mxPoint x="340" y="169" as="sourcePoint" />
            <mxPoint x="260" y="240" as="targetPoint" />
          </mxGeometry>
        </mxCell>
        <mxCell id="Y8AFegA1MB7wXAWUZDhi-20" value="" style="endArrow=none;html=1;rounded=0;exitX=0.691;exitY=1.081;exitDx=0;exitDy=0;exitPerimeter=0;" edge="1" parent="1" source="Y8AFegA1MB7wXAWUZDhi-5">
          <mxGeometry width="50" height="50" relative="1" as="geometry">
            <mxPoint x="195" y="90" as="sourcePoint" />
            <mxPoint x="190" y="230" as="targetPoint" />
          </mxGeometry>
        </mxCell>
        <mxCell id="Y8AFegA1MB7wXAWUZDhi-21" value="" style="endArrow=none;html=1;rounded=0;exitX=1;exitY=0.5;exitDx=0;exitDy=0;entryX=0.098;entryY=0.004;entryDx=0;entryDy=0;entryPerimeter=0;" edge="1" parent="1" source="Y8AFegA1MB7wXAWUZDhi-4" target="Y8AFegA1MB7wXAWUZDhi-1">
          <mxGeometry width="50" height="50" relative="1" as="geometry">
            <mxPoint x="128" y="113" as="sourcePoint" />
            <mxPoint x="190" y="241" as="targetPoint" />
          </mxGeometry>
        </mxCell>
        <mxCell id="Y8AFegA1MB7wXAWUZDhi-23" value="" style="endArrow=none;html=1;rounded=0;exitX=1;exitY=0.5;exitDx=0;exitDy=0;" edge="1" parent="1" source="Y8AFegA1MB7wXAWUZDhi-13">
          <mxGeometry width="50" height="50" relative="1" as="geometry">
            <mxPoint x="100" y="150" as="sourcePoint" />
            <mxPoint x="170" y="230" as="targetPoint" />
          </mxGeometry>
        </mxCell>
        <mxCell id="Y8AFegA1MB7wXAWUZDhi-24" value="phone" style="ellipse;whiteSpace=wrap;html=1;" vertex="1" parent="1">
          <mxGeometry x="463" y="179" width="70" height="40" as="geometry" />
        </mxCell>
        <mxCell id="Y8AFegA1MB7wXAWUZDhi-25" value="cid" style="ellipse;whiteSpace=wrap;html=1;" vertex="1" parent="1">
          <mxGeometry x="460" y="120" width="70" height="40" as="geometry" />
        </mxCell>
        <mxCell id="Y8AFegA1MB7wXAWUZDhi-26" value="name" style="ellipse;whiteSpace=wrap;html=1;" vertex="1" parent="1">
          <mxGeometry x="500" y="60" width="70" height="40" as="geometry" />
        </mxCell>
        <mxCell id="Y8AFegA1MB7wXAWUZDhi-27" value="Nickname" style="ellipse;whiteSpace=wrap;html=1;" vertex="1" parent="1">
          <mxGeometry x="580" y="40" width="70" height="40" as="geometry" />
        </mxCell>
        <mxCell id="Y8AFegA1MB7wXAWUZDhi-28" value="work" style="ellipse;whiteSpace=wrap;html=1;" vertex="1" parent="1">
          <mxGeometry x="660" y="40" width="70" height="40" as="geometry" />
        </mxCell>
        <mxCell id="Y8AFegA1MB7wXAWUZDhi-29" value="email" style="ellipse;whiteSpace=wrap;html=1;" vertex="1" parent="1">
          <mxGeometry x="740" y="60" width="70" height="40" as="geometry" />
        </mxCell>
        <mxCell id="Y8AFegA1MB7wXAWUZDhi-30" value="image" style="ellipse;whiteSpace=wrap;html=1;" vertex="1" parent="1">
          <mxGeometry x="760" y="118" width="70" height="40" as="geometry" />
        </mxCell>
        <mxCell id="Y8AFegA1MB7wXAWUZDhi-31" value="discription" style="ellipse;whiteSpace=wrap;html=1;" vertex="1" parent="1">
          <mxGeometry x="773" y="170" width="70" height="40" as="geometry" />
        </mxCell>
        <mxCell id="Y8AFegA1MB7wXAWUZDhi-32" value="" style="endArrow=none;html=1;rounded=0;exitX=0.5;exitY=0;exitDx=0;exitDy=0;" edge="1" parent="1">
          <mxGeometry width="50" height="50" relative="1" as="geometry">
            <mxPoint x="655" y="229" as="sourcePoint" />
            <mxPoint x="615" y="79" as="targetPoint" />
          </mxGeometry>
        </mxCell>
        <mxCell id="Y8AFegA1MB7wXAWUZDhi-33" value="" style="endArrow=none;html=1;rounded=0;entryX=0.5;entryY=1;entryDx=0;entryDy=0;" edge="1" parent="1" target="Y8AFegA1MB7wXAWUZDhi-28">
          <mxGeometry width="50" height="50" relative="1" as="geometry">
            <mxPoint x="665" y="230" as="sourcePoint" />
            <mxPoint x="615" y="90" as="targetPoint" />
          </mxGeometry>
        </mxCell>
        <mxCell id="Y8AFegA1MB7wXAWUZDhi-34" value="" style="endArrow=none;html=1;rounded=0;entryX=0.259;entryY=0.94;entryDx=0;entryDy=0;entryPerimeter=0;exitX=0.67;exitY=0.018;exitDx=0;exitDy=0;exitPerimeter=0;" edge="1" parent="1" source="Y8AFegA1MB7wXAWUZDhi-3" target="Y8AFegA1MB7wXAWUZDhi-29">
          <mxGeometry width="50" height="50" relative="1" as="geometry">
            <mxPoint x="675" y="240" as="sourcePoint" />
            <mxPoint x="692" y="90" as="targetPoint" />
          </mxGeometry>
        </mxCell>
        <mxCell id="Y8AFegA1MB7wXAWUZDhi-35" value="" style="endArrow=none;html=1;rounded=0;exitX=0.75;exitY=0;exitDx=0;exitDy=0;entryX=0.044;entryY=0.695;entryDx=0;entryDy=0;entryPerimeter=0;" edge="1" parent="1" source="Y8AFegA1MB7wXAWUZDhi-3" target="Y8AFegA1MB7wXAWUZDhi-30">
          <mxGeometry width="50" height="50" relative="1" as="geometry">
            <mxPoint x="684" y="241" as="sourcePoint" />
            <mxPoint x="770" y="140" as="targetPoint" />
          </mxGeometry>
        </mxCell>
        <mxCell id="Y8AFegA1MB7wXAWUZDhi-36" value="" style="endArrow=none;html=1;rounded=0;entryX=0;entryY=0.5;entryDx=0;entryDy=0;exitX=0.909;exitY=-0.01;exitDx=0;exitDy=0;exitPerimeter=0;" edge="1" parent="1" source="Y8AFegA1MB7wXAWUZDhi-3" target="Y8AFegA1MB7wXAWUZDhi-31">
          <mxGeometry width="50" height="50" relative="1" as="geometry">
            <mxPoint x="693" y="240" as="sourcePoint" />
            <mxPoint x="772" y="161" as="targetPoint" />
          </mxGeometry>
        </mxCell>
        <mxCell id="Y8AFegA1MB7wXAWUZDhi-37" value="" style="endArrow=none;html=1;rounded=0;exitX=0.399;exitY=-0.01;exitDx=0;exitDy=0;exitPerimeter=0;entryX=0.678;entryY=0.957;entryDx=0;entryDy=0;entryPerimeter=0;" edge="1" parent="1" source="Y8AFegA1MB7wXAWUZDhi-3" target="Y8AFegA1MB7wXAWUZDhi-26">
          <mxGeometry width="50" height="50" relative="1" as="geometry">
            <mxPoint x="665" y="240" as="sourcePoint" />
            <mxPoint x="550" y="90" as="targetPoint" />
          </mxGeometry>
        </mxCell>
        <mxCell id="Y8AFegA1MB7wXAWUZDhi-38" value="" style="endArrow=none;html=1;rounded=0;exitX=0.322;exitY=-0.01;exitDx=0;exitDy=0;exitPerimeter=0;entryX=0.966;entryY=0.716;entryDx=0;entryDy=0;entryPerimeter=0;" edge="1" parent="1" source="Y8AFegA1MB7wXAWUZDhi-3" target="Y8AFegA1MB7wXAWUZDhi-25">
          <mxGeometry width="50" height="50" relative="1" as="geometry">
            <mxPoint x="654" y="240" as="sourcePoint" />
            <mxPoint x="530" y="150" as="targetPoint" />
          </mxGeometry>
        </mxCell>
        <mxCell id="Y8AFegA1MB7wXAWUZDhi-39" value="" style="endArrow=none;html=1;rounded=0;entryX=1;entryY=0.5;entryDx=0;entryDy=0;" edge="1" parent="1" target="Y8AFegA1MB7wXAWUZDhi-24">
          <mxGeometry width="50" height="50" relative="1" as="geometry">
            <mxPoint x="620" y="230" as="sourcePoint" />
            <mxPoint x="538" y="159" as="targetPoint" />
          </mxGeometry>
        </mxCell>
        <mxCell id="Y8AFegA1MB7wXAWUZDhi-40" value="&amp;nbsp;has" style="rhombus;whiteSpace=wrap;html=1;" vertex="1" parent="1">
          <mxGeometry x="410" y="320" width="80" height="80" as="geometry" />
        </mxCell>
        <mxCell id="Y8AFegA1MB7wXAWUZDhi-41" value="" style="endArrow=none;html=1;rounded=0;exitX=0;exitY=0.5;exitDx=0;exitDy=0;entryX=0.75;entryY=1;entryDx=0;entryDy=0;" edge="1" parent="1">
          <mxGeometry width="50" height="50" relative="1" as="geometry">
            <mxPoint x="410" y="360" as="sourcePoint" />
            <mxPoint x="252.5" y="280" as="targetPoint" />
          </mxGeometry>
        </mxCell>
        <mxCell id="Y8AFegA1MB7wXAWUZDhi-42" value="" style="endArrow=none;html=1;rounded=0;exitX=1;exitY=0.5;exitDx=0;exitDy=0;entryX=0.141;entryY=1.054;entryDx=0;entryDy=0;entryPerimeter=0;" edge="1" parent="1">
          <mxGeometry width="50" height="50" relative="1" as="geometry">
            <mxPoint x="490" y="360" as="sourcePoint" />
            <mxPoint x="615.51" y="282.70000000000005" as="targetPoint" />
          </mxGeometry>
        </mxCell>
        <mxCell id="Y8AFegA1MB7wXAWUZDhi-43" value="1" style="text;html=1;strokeColor=none;fillColor=none;align=center;verticalAlign=middle;whiteSpace=wrap;rounded=0;" vertex="1" parent="1">
          <mxGeometry x="300" y="320" width="60" height="30" as="geometry" />
        </mxCell>
        <mxCell id="Y8AFegA1MB7wXAWUZDhi-44" value="n" style="text;html=1;strokeColor=none;fillColor=none;align=center;verticalAlign=middle;whiteSpace=wrap;rounded=0;" vertex="1" parent="1">
          <mxGeometry x="540" y="310" width="60" height="30" as="geometry" />
        </mxCell>
      </root>
    </mxGraphModel>
  </diagram>
</mxfile>
